<?xml version="1.0" ?><svg viewBox="0 0 512 512" xmlns="http://www.w3.org/2000/svg" fill="rgb(255,255,255)"><g id="Fog"><path d="M399.3359,323.4119H226.3506a10,10,0,0,0,0,20H399.3359a10,10,0,0,0,0-20Z"/><path d="M205.1182,333.4119a10.0005,10.0005,0,0,0-10-10h-75.96a10,10,0,0,0,0,20h75.96A10.0006,10.0006,0,0,0,205.1182,333.4119Z"/><path d="M259.1719,369.36a10.0005,10.0005,0,0,0-10-10H160.9834a10,10,0,1,0,0,20h88.1885A10.0005,10.0005,0,0,0,259.1719,369.36Z"/><path d="M370.3018,359.36H282.1133a10,10,0,0,0,0,20h88.1885a10,10,0,1,0,0-20Z"/><path d="M304.9971,396.3093H216.8086a10,10,0,1,0,0,20h88.1885a10,10,0,0,0,0-20Z"/><path d="M345.5094,302.5943h44.8472c18.1765,0,33.4345-14.34,33.8363-32.512q.02-.9223.0069-1.8529c-.397-27.1816-23.1283-48.7555-50.3128-48.7555h-9.1852a100.2292,100.2292,0,0,0,2.8446-23.158c.3265-55.2028-44.806-100.6178-100.01-100.6252a100.0276,100.0276,0,0,0-99.8921,94.61,64.9912,64.9912,0,0,0-12.765-1.2654h-1.4831c-35.6817,0-65.6872,29.1908-65.6014,64.8724a64.3367,64.3367,0,0,0,8.567,32.0185,33.5951,33.5951,0,0,0,29.1772,16.6678h219.97Z"/></g></svg>