<?xml version="1.0" ?><svg data-name="Layer 1" id="Layer_1"  width="36" height="36" viewBox="0 0 128 128" xmlns="http://www.w3.org/2000/svg"><defs><style>.cls-1{fill:#fff;}</style></defs><title/><path class="cls-1" d="M103.87793,54.80811a2.50769,2.50769,0,0,0-3.15039-1.60547L93.34131,55.603l1.81933-4.395a2.49972,2.49972,0,1,0-4.61914-1.9126l-3.45263,8.33887-4.82129,1.56689L87.728,46.01123a2.49972,2.49972,0,1,0-4.61914-1.9126L76.01514,61.23242,66.5,64.32373V54.05566L80.23975,42.3252a2.50021,2.50021,0,0,0-3.24707-3.80274L66.5,47.48145V42.7373l6.97949-5.959a2.50021,2.50021,0,0,0-3.24707-3.80273L66.5,36.1626V28.33545a2.5,2.5,0,0,0-5,0V36.1626l-3.7334-3.1875a2.49989,2.49989,0,0,0-3.24609,3.80273L61.5,42.7373v4.8418L50.89258,38.52246A2.50006,2.50006,0,0,0,47.646,42.3252L61.5,54.15332v10.1709L51.77783,61.165,44.83545,44.39746a2.49972,2.49972,0,1,0-4.61914,1.9126l5.30908,12.82373-4.61426-1.49951L37.4585,49.29492a2.49972,2.49972,0,1,0-4.61914,1.9126L34.65869,55.603l-7.38721-2.40039a2.5001,2.5001,0,0,0-1.54394,4.75586L33.30078,60.419l-4.314,2.64453a2.50012,2.50012,0,0,0,2.61377,4.26269l7.95263-4.875,4.43164,1.43945L32.145,71.14844a2.50012,2.50012,0,0,0,2.61377,4.26269l15.479-9.48877,9.7168,3.15723-6.0083,8.26953L35.98975,78.75928a2.5,2.5,0,0,0-1.41993,4.40088,2.47111,2.47111,0,0,0,1.81055.58447L50.082,82.66846l-2.75391,3.79-9.21142.72363a2.50037,2.50037,0,1,0,.39209,4.98535l4.95459-.38916-4.66211,6.4165a2.49995,2.49995,0,0,0,.55371,3.49268,2.56752,2.56752,0,0,0,3.49121-.55322l4.61524-6.35254,1.13232,4.7124a2.49983,2.49983,0,1,0,4.86133-1.168l-2.12891-8.86328L54.12842,85.605l3.21142,13.36719a2.49983,2.49983,0,1,0,4.86133-1.168l-4.208-17.51807L64,72.01807l6.00586,8.2666-4.2002,17.48291a2.49983,2.49983,0,1,0,4.86133,1.168l3.20313-13.332,2.80371,3.85937-2.12891,8.86328a2.49983,2.49983,0,1,0,4.86133,1.168l1.13232-4.7124,4.61524,6.35254a2.5,2.5,0,0,0,4.4917-1.07862,2.48364,2.48364,0,0,0-.44678-1.86084l-4.66211-6.4165L89.5,92.168a2.50026,2.50026,0,0,0,.38281-4.98584l-9.21093-.72363-2.75391-3.79,13.6748,1.07422a2.50032,2.50032,0,0,0,.37793-4.98633l-17.917-1.40674-6.0083-8.27,9.92334-3.22412,15.24609,9.3457a2.5,2.5,0,1,0,2.61328-4.26269L84.22168,63.82324l4.2251-1.37207,7.95263,4.875a2.5,2.5,0,0,0,2.61329-4.26269L94.69922,60.419l7.57324-2.46045A2.50394,2.50394,0,0,0,103.87793,54.80811Z"/></svg>